<svg width="50" height="51" viewBox="0 0 50 51" fill="none" xmlns="http://www.w3.org/2000/svg">
<path d="M26.5 4.33203C14.08 4.33203 4 14.412 4 26.832C4 39.252 14.08 49.332 26.5 49.332C38.92 49.332 49 39.252 49 26.832C49 14.412 38.92 4.33203 26.5 4.33203ZM36.94 19.632C36.6025 23.187 35.14 31.827 34.3975 35.8095C34.0825 37.497 33.4525 38.0595 32.8675 38.127C31.5625 38.2395 30.5725 37.272 29.3125 36.4395C27.3325 35.1345 26.2075 34.3245 24.295 33.0645C22.0675 31.602 23.5075 30.792 24.79 29.487C25.1275 29.1495 30.8875 23.907 31 23.4345C31.0156 23.363 31.0135 23.2887 30.9939 23.2181C30.9743 23.1475 30.9378 23.0828 30.8875 23.0295C30.7525 22.917 30.5725 22.962 30.415 22.9845C30.2125 23.0295 27.0625 25.122 20.92 29.262C20.02 29.8695 19.21 30.1845 18.49 30.162C17.68 30.1395 16.15 29.712 15.0025 29.3295C13.585 28.8795 12.4825 28.632 12.5725 27.8445C12.6175 27.4395 13.18 27.0345 14.2375 26.607C20.8075 23.7495 25.1725 21.8595 27.355 20.9595C33.61 18.3495 34.8925 17.8995 35.7475 17.8995C35.9275 17.8995 36.355 17.9445 36.625 18.1695C36.85 18.3495 36.9175 18.597 36.94 18.777C36.9175 18.912 36.9625 19.317 36.94 19.632Z" fill="black"/>
</svg>
