<svg width="50" height="50" viewBox="0 0 50 50" fill="none" xmlns="http://www.w3.org/2000/svg">
<path d="M34.6956 16.3538L16.3558 27.6649C16.0332 27.8645 15.8862 28.2551 15.9981 28.6162L18.4579 36.4984C18.5095 36.6642 18.7519 36.6413 18.7717 36.4689L19.3696 31.1832C19.3927 30.9792 19.4914 30.7905 19.6461 30.6541L35.1772 16.9974C35.5492 16.6701 35.1169 16.093 34.6956 16.3538Z" fill="white"/>
<path d="M6 0C2.68629 0 0 2.68629 0 6V43.7184C0 47.0321 2.68629 49.7184 6 49.7184H44C47.3137 49.7184 50 47.0321 50 43.7184V6.00001C50 2.6863 47.3137 0 44 0H6ZM41.6782 12.9192L35.9698 40.0579C35.7021 41.3311 34.2001 41.9039 33.1446 41.1336L28.7056 37.8939C26.3039 36.141 22.9805 36.4116 20.8939 38.53L20.1325 39.303C19.3612 40.0852 18.0293 39.7688 17.6991 38.7237L15.4931 31.7629C14.89 29.8597 13.3797 28.3812 11.4641 27.8186L6.03208 26.2235C4.91739 25.8962 4.85156 24.3503 5.93443 23.9313L39.3698 10.9751C40.6425 10.482 41.958 11.5893 41.6782 12.9192Z" fill="white"/>
</svg>
