<svg width="50" height="51" viewBox="0 0 50 51" fill="none" xmlns="http://www.w3.org/2000/svg">
<path d="M23.5 4.33203C11.0734 4.33203 1 14.4055 1 26.832C1 39.2586 11.0734 49.332 23.5 49.332C35.9266 49.332 46 39.2586 46 26.832C46 14.4055 35.9266 4.33203 23.5 4.33203ZM32.1531 29.7172C32.1531 29.7172 34.143 31.6813 34.6328 32.593C34.6469 32.6133 34.6555 32.6289 34.6586 32.6398C34.857 32.9727 34.9062 33.2359 34.8063 33.4297C34.6422 33.7531 34.0797 33.9125 33.8875 33.9266H30.3719C30.1281 33.9266 29.6172 33.8633 28.9984 33.4367C28.5227 33.1039 28.0539 32.5578 27.5969 32.0258C26.9148 31.2336 26.3242 30.5492 25.7289 30.5492C25.6533 30.5489 25.5781 30.5608 25.5063 30.5844C25.0563 30.7297 24.4797 31.3719 24.4797 33.0828C24.4797 33.6172 24.0578 33.9242 23.7602 33.9242H22.15C21.6016 33.9242 18.7445 33.732 16.2133 31.0625C13.1148 27.793 10.3258 21.2352 10.3023 21.1742C10.1266 20.75 10.4898 20.5227 10.8859 20.5227H14.4367C14.9102 20.5227 15.0648 20.8109 15.1727 21.0664C15.2992 21.3641 15.7633 22.5477 16.525 23.8789C17.7602 26.0492 18.5172 26.9305 19.1242 26.9305C19.238 26.9291 19.3498 26.9002 19.45 26.8461C20.2422 26.4055 20.0945 23.5812 20.0594 22.9953C20.0594 22.8852 20.057 21.732 19.6516 21.1789C19.3609 20.7781 18.8664 20.6258 18.5664 20.5695C18.6878 20.402 18.8478 20.2661 19.0328 20.1734C19.5766 19.9016 20.5563 19.8617 21.5289 19.8617H22.0703C23.125 19.8758 23.3969 19.9438 23.7789 20.0398C24.5523 20.225 24.5688 20.7242 24.5008 22.4328C24.4797 22.918 24.4586 23.4664 24.4586 24.1133L24.4516 24.5633C24.4281 25.4328 24.4 26.4195 25.0141 26.825C25.0932 26.8772 25.1864 26.9042 25.2813 26.9023C25.4945 26.9023 26.1367 26.9023 27.8758 23.9188C28.4101 22.9574 28.8761 21.9596 29.2703 20.9328C29.3055 20.8719 29.4086 20.6844 29.5305 20.6117C29.6214 20.5685 29.7205 20.5453 29.8211 20.5437H33.9953C34.45 20.5437 34.7617 20.6117 34.8203 20.7875C34.9234 21.0664 34.8016 21.9172 32.8961 24.4977L32.0453 25.6203C30.318 27.8844 30.318 27.9992 32.1531 29.7172Z" fill="black"/>
</svg>
