<svg width="50" height="50" viewBox="0 0 50 50" fill="none" xmlns="http://www.w3.org/2000/svg">
<g clip-path="url(#clip0_126_34)">
<path d="M0.0976562 44.1523C0.0976562 31.4167 0.0976562 18.681 0.0976562 5.94531C0.130145 5.875 0.176929 5.80599 0.191224 5.73177C0.614875 3.4987 1.84814 1.87109 3.84944 0.80599C4.51221 0.453125 5.24385 0.322917 5.94561 0.0976562C18.6812 0.0976562 31.4167 0.0976562 44.1522 0.0976562C44.2237 0.130208 44.2913 0.175781 44.3654 0.191406C47.1035 0.751302 48.8865 2.3724 49.7494 5.02344C49.8481 5.32813 49.8299 5.66146 50.0002 5.94531V44.1523C49.9677 44.2227 49.9196 44.2904 49.9066 44.3646C49.314 47.6589 46.5356 49.9987 43.1971 50C31.0827 50.0013 18.9684 50.0013 6.85399 50C3.99759 50 1.43879 48.1862 0.491418 45.4896C0.338072 45.0521 0.22891 44.599 0.0989558 44.1536L0.0976562 44.1523ZM40.4927 24.9492C40.4966 23.974 40.4147 23.0039 40.238 22.0456C38.6435 13.3568 29.904 7.77865 21.2789 9.94141C11.852 12.306 6.91117 22.7448 11.0788 31.5104C11.2283 31.8255 11.2504 32.1146 11.1828 32.4401C10.6747 34.8633 10.1704 37.2878 9.66881 39.7135C9.52716 40.3997 9.84424 40.7201 10.5161 40.5638C12.9281 40.0026 15.3387 39.4414 17.7455 38.862C18.034 38.793 18.2692 38.8112 18.5356 38.9336C21.4765 40.2969 24.5551 40.6849 27.7416 40.1432C35.0697 38.8984 40.4693 32.4544 40.4927 24.9492Z" fill="white"/>
<path d="M13.7726 36.3607C14.0806 34.849 14.3587 33.4206 14.6706 32C14.7524 31.625 14.7147 31.3138 14.5328 30.9818C13.3827 28.8893 12.7862 26.6602 12.9578 24.2617C13.2774 19.7878 15.3892 16.388 19.3164 14.2578C26.6277 10.2943 35.5737 14.7018 37.011 22.9023C38.152 29.4089 33.7037 35.7214 27.1969 36.8503C24.3379 37.3451 21.6491 36.875 19.1124 35.4935C18.7459 35.2943 18.4132 35.2539 18.0039 35.3581C16.6264 35.7083 15.2398 36.0156 13.77 36.3607H13.7726ZM29.2683 32.4466C29.5062 32.4154 29.9116 32.3854 30.308 32.3073C31.6309 32.0456 32.4106 31.0898 33.1033 30.0482C33.6049 29.2943 33.3099 28.5195 32.4392 28.2552C31.7583 28.0482 31.0422 27.931 30.3912 27.6562C29.3346 27.2096 28.5458 27.4323 27.8349 28.3203C27.3762 28.8919 26.8889 28.9154 26.2261 28.5716C25.575 28.2344 24.9876 27.7995 24.4249 27.3333C23.3489 26.4414 22.2989 25.5182 21.488 24.3659C21.1085 23.8268 21.1332 23.3789 21.5257 22.849C21.7089 22.6016 21.9077 22.3646 22.0845 22.112C22.3106 21.7904 22.4132 21.4401 22.2456 21.0586C21.8116 20.0638 21.3931 19.0625 20.9305 18.082C20.6589 17.5065 19.9467 17.2669 19.4451 17.6263C18.4262 18.3555 17.5711 19.2487 17.3372 20.5456C17.0877 21.9297 17.4438 23.2279 18.0845 24.4375C19.5438 27.194 21.7739 29.2266 24.3561 30.8958C25.7934 31.8255 27.3671 32.3984 29.2696 32.4466H29.2683Z" fill="white"/>
</g>
<defs>
<clipPath id="clip0_126_34">
<rect width="50" height="50" fill="white"/>
</clipPath>
</defs>
</svg>
